<svg xmlns="http://www.w3.org/2000/svg" viewBox="0 0 80 81"><path d="M19.45 35.52l-.018.31v2.878l.057 1.126v.312l.037 2.565v.334l-.018.154-.02.33-.06.932.02 1.13-.02.27-.077.236-.157.213-.193.134-.176.058-.27.02-.994.04-.31.02-.486.018h-.312l-.252-.06-.232-.097-.234-.174-.175-.255-.29-.563-.174-.254-.758-.952-.196-.232-.758-.934-.175-.254-.68-1.01-.177-.234-.757-.934-.195-.233-.72-.95-.173-.157-.137.058-.057.234-.04.972v.31l.022.972v.312l.018 1.09v.31l-.057 1.09.018.31.118.777.018.312-.057.252-.136.135-.137.038-.233.04-.156.02-.33.02-.892-.02h-.312l-.797.038h-.31l-.293-.018-.215-.04-.153-.096-.08-.137-.04-.195-.02-.136v-.294l.04-.643.02-.31-.06-1.03v-.31L6.29 41l.02-.31.056-1.03.02-.31v-1.343l-.077-1.03v-.31l.076-1.032-.02-.31-.078-1.05-.02-.31v-.448l.02-.292.037-.292.04-.214.06-.138.114-.06.215-.037.584-.038.582.038H9.38l.233.02.1.077.114.175.818.875.194.234.717.933.195.232.72.95.193.236.7.97.175.235.74.932.194.233.7.972.155.137.153.018.137-.097v-.213l-.136-.817-.018-.31.057-.836v-.312l-.077-1.185v-.312l.077-1.185-.02-.31-.057-.722v-.485l.058-.252.078-.156.136-.076.233-.04h.178l.33-.02.874.06h.314l.66-.04.292.02.447.02.214.037.135.057.117.137.038.273.02.174.02.33-.04.604-.038.312m59.795-1.554l-.934 2.45-.117.29-.33 1.09-.115.292-.466 1.088-.1.292-.31 1.088-.116.312-.487 1.01-.114.312-.31 1.106-.098.293-.506 1.07-.1.29-.348 1.09-.098.31-.33 1.09-.078.192-.1.098-.135.02-1.303-.037-1.517-.098-.192-.04-.1-.155-.483-.953-.1-.27-.35-1.013-.076-.27-.35-.992-.098-.273-.39-.99-.115-.274-.35-.97-.096-.176h-.06l-.076.175-.35.99-.098.274-.466.932-.097.27-.31 1.032-.1.27-.33.994-.118.27-.367.974-.098.213-.214.098-1.205-.098h-.31l-1.204.098-.176-.098-.078-.232-.543-1.05-.1-.292-.272-1.106-.096-.29-.488-1.09-.116-.29-.408-1.052-.097-.31-.33-1.11-.098-.29-.973-2.45-.115-.292-.35-1.09-.137-.308-.486-1.012-.137-.292-.448-1.108-.02-.233.117-.136.215-.06h.29l.76.06h.31l1.342.02h1.05l.253.02.078.077.04.194.445 1.285.097.293.39 1.244.1.29.503 1.168.098.29.39 1.187.06.31.23 1.226.078.175.117.02.117-.156.33-.99.096-.274.254-1.03.08-.292.29-.95.08-.293.33-1.01.075-.273.31-1.01.098-.273.292-.835.076-.214.1-.096.214-.04.97-.077.29-.02.43.02h.29l.293.02.194.078.118.194.057.155.12.27.212.546.098.273.29 1.01.08.274.31 1.01.077.273.234 1.03.098.273.468.952.076.27.06.45.058.31.077.29.116.157.116-.02.098-.214.234-1.13.08-.29.153-.41.1-.29.153-.428.1-.312.192-.913.098-.31.33-.876.117-.29.37-.875.097-.292.193-.738.078-.234.117-.135.234-.04 1.03.08h.31l1.05-.06H78l1.032.078h.213l.078.06"></path><path d="M40.707 39.495L79.73.475c.193-.197.193-.513 0-.71-.196-.194-.514-.194-.71 0L40 38.79.98-.234C.783-.43.466-.43.27-.234.075-.038.075.278.27.474l39.02 39.02L.273 78.518c-.196.194-.196.512 0 .707.097.098.225.146.353.146s.256-.05.354-.145L40 40.202l39.02 39.022c.1.096.228.146.355.146s.256-.05.354-.146c.193-.197.193-.514 0-.71l-39.023-39.02z"></path><path d="M38.356 59.465L36.53 78.24l3.37 3.14 3.372-3.14-1.715-18.775m1.306-4.973H37.05l1.307 4.767h3.2m-7.83 10.347l.745 1.5 1.584-.547 1.242-2.672.767-7.076M32.047 1.945c1.1 0 1.99.89 1.99 1.99s-.89 1.99-1.99 1.99-1.99-.89-1.99-1.99.89-1.99 1.99-1.99m1.69 8.555l7.662 7.662c-.897 0-1.892-.2-2.787-.498-.398-.1-1.79-.298-2.388.2-1.293 1.293-2.388 2.984-2.984 3.58-.595.598-1.49.4-2.386-.496-.796-.796-1.096-1.79-.498-2.388.697-.498 2.388-1.69 3.682-2.885.596-.597.298-2.19.2-2.388-.4-.896-.5-1.89-.5-2.787m13.93-6.266c-3.68-3.78-8.655-2.388-11.74.597-1.095 1.095-1.89 2.488-2.09 3.98l9.253 9.253c1.494-.298 2.89-.994 3.98-2.09 2.987-3.083 4.38-8.058.598-11.74"></path></svg>
